Coordinates
version=1
nRows=41
nColumns=38
inDegrees=no

Units are S.I. units (second, meters, Newtons, ...)
If the header above contains a line with 'inDegrees', this indicates whether rotational values are in degrees (yes) or radians (no).

endheader
time	pelvis_tilt	pelvis_list	pelvis_rotation	pelvis_tx	pelvis_ty	pelvis_tz	hip_flexion_r	hip_adduction_r	hip_rotation_r	knee_angle_r	ankle_angle_r	subtalar_angle_r	mtp_angle_r	hip_flexion_l	hip_adduction_l	hip_rotation_l	knee_angle_l	ankle_angle_l	subtalar_angle_l	mtp_angle_l	lumbar_extension	lumbar_bending	lumbar_rotation	arm_flex_r	arm_add_r	arm_rot_r	elbow_flex_r	pro_sup_r	wrist_flex_r	wrist_dev_r	arm_flex_l	arm_add_l	arm_rot_l	elbow_flex_l	pro_sup_l	wrist_flex_l	wrist_dev_l
9.78	-3.10905	1.46927	1.51123	0.700456	0.539318	1.02998	0.279221	-0.025526	0.0790377	0.405234	-0.152095	0	0	0.109289	-0.00544051	-0.109515	0.250568	-0.232393	0	0	-0.365988	0.0144888	-0.00614351	-0.129399	-0.435752	0.228435	1.17664	1.18567	0	0	-0.170646	-0.394033	0.241045	1.07524	1.5708	0	0
9.79	-3.11455	1.46924	1.51527	0.700991	0.538106	1.03007	0.277051	-0.0266593	0.0784272	0.402539	-0.150932	0	0	0.106078	-0.00410312	-0.109883	0.246538	-0.233399	0	0	-0.364735	0.0138958	-0.00659419	-0.131873	-0.436884	0.224135	1.1848	1.18521	0	0	-0.175477	-0.391928	0.232212	1.08241	1.5708	0	0
9.8	-3.11792	1.46875	1.51742	0.701537	0.536845	1.03012	0.275203	-0.0272423	0.0781719	0.399954	-0.149115	0	0	0.103639	-0.00311454	-0.110481	0.243241	-0.233781	0	0	-0.362905	0.0138033	-0.00754943	-0.134097	-0.438004	0.220007	1.19358	1.18323	0	0	-0.180298	-0.389305	0.222036	1.09028	1.5708	0	0
9.81	-3.11993	1.46767	1.51845	0.702111	0.535555	1.03011	0.273959	-0.027673	0.0777875	0.397581	-0.146389	0	0	0.102101	-0.00236277	-0.11102	0.240797	-0.233313	0	0	-0.360224	0.0140251	-0.00889227	-0.135808	-0.439339	0.216671	1.20238	1.17877	0	0	-0.185059	-0.386604	0.211997	1.09771	1.5708	0	0
9.82	-3.12155	1.46546	1.51913	0.702698	0.534264	1.02999	0.274279	-0.0279535	0.0779602	0.39609	-0.142396	0	0	0.102258	-0.00180491	-0.111435	0.239886	-0.231653	0	0	-0.356023	0.014417	-0.0106678	-0.136306	-0.441053	0.215207	1.20986	1.17083	0	0	-0.190006	-0.383705	0.201885	1.10454	1.5708	0	0
9.83	-3.12215	1.47061	1.5186	0.703264	0.532948	1.03058	0.264728	-0.028475	0.0778222	0.389999	-0.152201	0	0	0.0909614	-0.000488404	-0.111461	0.229196	-0.238984	0	0	-0.354639	0.0146994	0.00720826	-0.156271	-0.43589	0.181857	1.22093	1.20039	0	0	-0.168955	-0.395012	0.240629	1.10105	1.5708	0	0
9.84	-3.12721	1.47102	1.52291	0.70384	0.531606	1.03067	0.261713	-0.0291458	0.0791391	0.38755	-0.151602	0	0	0.0868224	0.00088585	-0.111039	0.224529	-0.240103	0	0	-0.352664	0.014744	0.00825051	-0.15912	-0.436589	0.176059	1.22878	1.1975	0	0	-0.170014	-0.395544	0.237994	1.10887	1.5708	0	0
9.85	-3.13317	1.47129	1.52819	0.704439	0.530236	1.03075	0.259155	-0.0301913	0.0798871	0.385688	-0.151196	0	0	0.0828223	0.00246255	-0.110707	0.219822	-0.241328	0	0	-0.350334	0.0149563	0.00951278	-0.161964	-0.438053	0.171453	1.23613	1.19311	0	0	-0.170634	-0.396489	0.236394	1.11674	1.5708	0	0
9.86	-3.13864	1.47185	1.53288	0.705025	0.528842	1.03085	0.256307	-0.031252	0.0806292	0.383763	-0.150734	0	0	0.0780538	0.00402461	-0.110756	0.213912	-0.243379	0	0	-0.348159	0.0152628	0.0114715	-0.165106	-0.440246	0.167715	1.24321	1.18573	0	0	-0.170567	-0.397603	0.236259	1.12411	1.5708	0	0
9.87	3.13914	1.47226	1.53747	0.705577	0.52748	1.03096	0.253707	-0.0321127	0.0823906	0.381983	-0.150273	0	0	0.0733006	0.00556449	-0.11103	0.207442	-0.245814	0	0	-0.345696	0.015463	0.0140719	-0.168353	-0.442172	0.163946	1.24902	1.17838	0	0	-0.169603	-0.398133	0.237265	1.12968	1.5708	0	0
9.88	3.13409	1.47229	1.54185	0.706096	0.526179	1.03104	0.25159	-0.0328993	0.0837366	0.380217	-0.149992	0	0	0.069377	0.00701776	-0.111573	0.201748	-0.247903	0	0	-0.342965	0.01563	0.0165403	-0.170826	-0.443651	0.160929	1.25239	1.17381	0	0	-0.168132	-0.39711	0.237668	1.132	1.5708	0	0
9.89	3.12879	1.4729	1.54661	0.70658	0.524912	1.03116	0.249131	-0.0338188	0.0840606	0.37895	-0.149713	0	0	0.0648238	0.00847489	-0.112425	0.195766	-0.250633	0	0	-0.34087	0.0157266	0.0194877	-0.172782	-0.445147	0.158844	1.25372	1.17005	0	0	-0.165214	-0.394338	0.237837	1.13001	1.5708	0	0
9.9	3.12471	1.47396	1.5503	0.707045	0.523693	1.0313	0.246167	-0.0345598	0.0845863	0.377687	-0.149339	0	0	0.0599839	0.00972234	-0.113497	0.190229	-0.253615	0	0	-0.339358	0.0158377	0.022929	-0.174279	-0.447004	0.157538	1.25422	1.16665	0	0	-0.160881	-0.390376	0.237657	1.12488	1.5708	0	0
9.91	3.12183	1.4751	1.55278	0.707485	0.522501	1.03144	0.243078	-0.0350441	0.0852671	0.376243	-0.148841	0	0	0.0551875	0.0107819	-0.114686	0.184924	-0.256147	0	0	-0.338095	0.0159067	0.0265811	-0.175348	-0.449099	0.156573	1.255	1.16321	0	0	-0.155494	-0.38652	0.237804	1.11907	1.5708	0	0
9.92	3.11863	1.47598	1.55568	0.707908	0.521354	1.03156	0.240234	-0.0355196	0.0853752	0.374543	-0.148156	0	0	0.0507659	0.0118602	-0.115445	0.179787	-0.2582	0	0	-0.336836	0.0159153	0.0300395	-0.176365	-0.450757	0.155043	1.25638	1.1593	0	0	-0.14971	-0.383235	0.23844	1.11442	1.5708	0	0
9.93	3.11358	1.47654	1.56091	0.708351	0.52025	1.03166	0.237645	-0.0362637	0.0848403	0.372544	-0.147363	0	0	0.0469605	0.0131262	-0.115276	0.175062	-0.260146	0	0	-0.335386	0.0159244	0.0331416	-0.17791	-0.451827	0.152608	1.25847	1.15508	0	0	-0.144036	-0.380531	0.239615	1.11129	1.5708	0	0
9.94	3.11005	1.4757	1.56503	0.708817	0.519172	1.0316	0.236869	-0.0369988	0.0844377	0.371567	-0.147416	0	0	0.0458803	0.0140027	-0.115519	0.173719	-0.259053	0	0	-0.338007	0.0159228	0.0205703	-0.165624	-0.454929	0.167508	1.25937	1.15913	0	0	-0.158857	-0.372246	0.207882	1.1233	1.5708	0	0
9.95	3.10917	1.47594	1.56663	0.709316	0.518055	1.03165	0.234585	-0.0378756	0.0830453	0.369977	-0.146956	0	0	0.0426159	0.0148126	-0.115191	0.169356	-0.260753	0	0	-0.336834	0.0167707	0.0216365	-0.166601	-0.455881	0.166125	1.26239	1.15309	0	0	-0.156822	-0.369549	0.204769	1.12464	1.5708	0	0
9.96	3.10686	1.47621	1.56976	0.709822	0.516977	1.03164	0.232681	-0.0390551	0.0810646	0.368902	-0.146579	0	0	0.03956	0.0157475	-0.114975	0.165403	-0.262073	0	0	-0.335504	0.0174651	0.0230675	-0.16822	-0.456725	0.1638	1.26602	1.1471	0	0	-0.154571	-0.367942	0.202471	1.12698	1.5708	0	0
9.97	3.10347	1.47648	1.57377	0.710324	0.515931	1.03163	0.231218	-0.0410382	0.0786506	0.369026	-0.146341	0	0	0.0366691	0.0167152	-0.115094	0.161846	-0.263248	0	0	-0.334288	0.0179243	0.0246474	-0.169983	-0.457162	0.160265	1.27011	1.14287	0	0	-0.152449	-0.366951	0.199885	1.1301	1.5708	0	0
9.98	3.09652	1.4765	1.58052	0.710692	0.514893	1.03159	0.230392	-0.0424762	0.0779366	0.369707	-0.145716	0	0	0.0339381	0.0178715	-0.115932	0.15809	-0.264707	0	0	-0.332761	0.0176961	0.0269424	-0.17177	-0.456662	0.155236	1.27406	1.14154	0	0	-0.150075	-0.366403	0.197463	1.13323	1.5708	0	0
9.99	3.09145	1.47604	1.58566	0.711064	0.513858	1.03151	0.229944	-0.0432081	0.0779997	0.369946	-0.144921	0	0	0.0318848	0.0188436	-0.116398	0.154695	-0.266047	0	0	-0.330601	0.0177695	0.0293892	-0.173874	-0.455847	0.149114	1.27831	1.14214	0	0	-0.14701	-0.366014	0.196012	1.13607	1.5708	0	0
10	3.08804	1.4753	1.58973	0.711519	0.512787	1.03143	0.229819	-0.0446029	0.0772378	0.370061	-0.144628	0	0	0.0303115	0.0197265	-0.116367	0.151651	-0.267191	0	0	-0.327734	0.0183359	0.0320484	-0.176803	-0.454977	0.142066	1.28311	1.14315	0	0	-0.142924	-0.365673	0.196138	1.13843	1.5708	0	0
10.01	3.08553	1.47483	1.59265	0.711863	0.511773	1.0314	0.229713	-0.0457988	0.0771085	0.370661	-0.144585	0	0	0.0285098	0.0203764	-0.11677	0.148692	-0.268262	0	0	-0.325297	0.0188278	0.0349874	-0.179757	-0.453782	0.134652	1.28861	1.14369	0	0	-0.13841	-0.366211	0.197393	1.14174	1.5708	0	0
10.02	3.07762	1.47502	1.59929	0.711853	0.510997	1.03139	0.229502	-0.0459875	0.0812052	0.372095	-0.14392	0	0	0.0260808	0.0212672	-0.118954	0.145685	-0.269298	0	0	-0.324185	0.0178248	0.0391845	-0.182225	-0.451901	0.126826	1.29483	1.14375	0	0	-0.133419	-0.368822	0.200003	1.14718	1.5708	0	0
10.03	3.06967	1.47513	1.6068	0.71195	0.510244	1.03137	0.229087	-0.0461508	0.0844924	0.373283	-0.143016	0	0	0.0239963	0.0223504	-0.120239	0.14316	-0.270405	0	0	-0.322936	0.0170901	0.0424638	-0.184398	-0.449982	0.118966	1.30102	1.14346	0	0	-0.12801	-0.372157	0.203402	1.15283	1.5708	0	0
10.04	3.06463	1.47493	1.61336	0.712368	0.509351	1.03133	0.228198	-0.0469218	0.084314	0.373542	-0.141989	0	0	0.0222937	0.023596	-0.11949	0.140652	-0.271928	0	0	-0.32057	0.0175473	0.0449313	-0.18764	-0.448104	0.109689	1.3071	1.14312	0	0	-0.121269	-0.37513	0.20832	1.15702	1.5708	0	0
10.05	3.0606	1.47495	1.61875	0.712729	0.508533	1.03132	0.227167	-0.0475304	0.0844658	0.373692	-0.140908	0	0	0.0204442	0.0246693	-0.118822	0.138129	-0.273444	0	0	-0.318316	0.0180503	0.0482726	-0.19091	-0.446407	0.100031	1.31318	1.14326	0	0	-0.112925	-0.378657	0.215152	1.16044	1.5708	0	0
10.06	3.05938	1.47498	1.62139	0.713067	0.507757	1.03134	0.226166	-0.0478824	0.0848021	0.373879	-0.139898	0	0	0.0187017	0.0253448	-0.118111	0.135716	-0.274635	0	0	-0.315795	0.0188533	0.0523339	-0.194247	-0.444935	0.0901248	1.31917	1.1441	0	0	-0.103063	-0.38277	0.224433	1.16273	1.5708	0	0
10.07	3.05928	1.47487	1.62283	0.713381	0.507011	1.03136	0.225326	-0.0481404	0.0854367	0.374061	-0.139026	0	0	0.017166	0.0258067	-0.117362	0.133452	-0.275517	0	0	-0.313011	0.0196735	0.0568702	-0.19743	-0.4438	0.0805481	1.32494	1.1453	0	0	-0.0920895	-0.387367	0.235605	1.16427	1.5708	0	0
10.08	3.05679	1.47478	1.62627	0.713626	0.506327	1.03137	0.224636	-0.0485903	0.0864947	0.374489	-0.138248	0	0	0.0156749	0.026426	-0.117038	0.131286	-0.276299	0	0	-0.310085	0.0200234	0.0622498	-0.200503	-0.443032	0.0714073	1.33043	1.14611	0	0	-0.0796138	-0.392307	0.248759	1.16516	1.5708	0	0
10.09	3.05429	1.47465	1.62974	0.713819	0.505688	1.03135	0.224018	-0.0489822	0.0873929	0.374809	-0.137463	0	0	0.0144304	0.026965	-0.116673	0.129468	-0.276895	0	0	-0.306892	0.0202158	0.0681314	-0.203603	-0.442096	0.0620761	1.33553	1.14639	0	0	-0.0655825	-0.397731	0.264108	1.16529	1.5708	0	0
10.1	3.05257	1.47444	1.63231	0.71397	0.505113	1.03131	0.223569	-0.0490387	0.0885882	0.375065	-0.136657	0	0	0.0134932	0.0273708	-0.116171	0.128076	-0.277325	0	0	-0.30339	0.0203886	0.0747375	-0.206782	-0.441065	0.05236	1.34032	1.14614	0	0	-0.0498274	-0.403396	0.281732	1.16417	1.5708	0	0
10.11	3.04991	1.47404	1.63547	0.714107	0.504598	1.03126	0.223681	-0.049044	0.0902994	0.375788	-0.135828	0	0	0.0128833	0.0279071	-0.116011	0.12689	-0.277686	0	0	-0.299408	0.020364	0.0823884	-0.210022	-0.440128	0.0424487	1.34465	1.14486	0	0	-0.0322504	-0.408898	0.301549	1.16136	1.56972	0	0
10.12	3.04745	1.47375	1.63819	0.714211	0.504109	1.03124	0.223781	-0.0490583	0.0917431	0.376689	-0.134993	0	0	0.0121611	0.0283853	-0.11614	0.125701	-0.278133	0	0	-0.295146	0.0202509	0.0911639	-0.21349	-0.439312	0.0321961	1.34832	1.14301	0	0	-0.0125162	-0.414636	0.324905	1.1568	1.55965	0	0
10.13	3.03797	1.47647	1.64783	0.714193	0.503766	1.03135	0.220527	-0.0497051	0.0918213	0.37702	-0.132922	0	0	0.0080911	0.029176	-0.116566	0.124028	-0.27901	0	0	-0.276269	0.0206512	0.147633	-0.258069	-0.427736	-0.0295634	1.35294	1.13673	0	0	0.0813931	-0.42803	0.472876	1.10122	1.48433	0	0
10.14	3.01844	1.48309	1.66722	0.714041	0.503561	1.03151	0.212963	-0.0509177	0.0909695	0.376984	-0.129587	0	0	-0.000310524	0.0301933	-0.118241	0.122202	-0.278712	0	0	-0.231723	0.0251262	0.2846	-0.366332	-0.38765	-0.173012	1.35607	1.12865	0	0	0.288597	-0.386091	0.804533	0.935435	1.3144	0	0
10.15	3.01394	1.4839	1.67183	0.714093	0.503168	1.03156	0.211914	-0.0511642	0.0919128	0.3778	-0.128951	0	0	-0.00185942	0.0305577	-0.11842	0.121639	-0.27833	0	0	-0.230574	0.0243445	0.289041	-0.364176	-0.388361	-0.177003	1.35703	1.12604	0	0	0.303111	-0.383387	0.817916	0.930161	1.30382	0	0
10.16	3.00838	1.48466	1.6773	0.714137	0.502829	1.03161	0.211228	-0.051376	0.0935564	0.379171	-0.128384	0	0	-0.00320782	0.0310247	-0.118392	0.121438	-0.277931	0	0	-0.229842	0.0233311	0.292742	-0.360899	-0.38961	-0.17975	1.35726	1.12366	0	0	0.316944	-0.380813	0.830555	0.925216	1.29312	0	0
10.17	3.00372	1.48524	1.68174	0.714163	0.502549	1.03168	0.210696	-0.051586	0.0943229	0.380042	-0.128116	0	0	-0.00412861	0.0313994	-0.118186	0.121717	-0.277464	0	0	-0.229251	0.02234	0.296148	-0.356958	-0.391103	-0.181836	1.35704	1.12136	0	0	0.330813	-0.378101	0.843307	0.919927	1.28249	0	0
10.18	3.00025	1.48551	1.68482	0.714155	0.502346	1.03172	0.210502	-0.0519803	0.0931633	0.380221	-0.128064	0	0	-0.00456805	0.0316708	-0.117844	0.122	-0.277232	0	0	-0.228717	0.0212909	0.299078	-0.352156	-0.392918	-0.182955	1.35638	1.11881	0	0	0.344455	-0.375643	0.855545	0.914827	1.27247	0	0
